<svg width="162" height="44" viewBox="0 0 162 44" xmlns="http://www.w3.org/2000/svg">
    <g fill="#FFF" fill-rule="nonzero">
        <path d="M54.387 11.924a3.371 3.371 0 0 1 .493-1.903c.35-.571.86-1.024 1.468-1.3a3.324 3.324 0 0 1 3.689.633 3.365 3.365 0 0 1 .79 3.677 3.356 3.356 0 0 1-1.228 1.531 3.33 3.33 0 0 1-1.87.578 3.208 3.208 0 0 1-2.315-.904 3.232 3.232 0 0 1-.986-2.291l-.04-.02zm0 4.834h6.622V36.95h-6.52l-.102-20.193zm30.44 10.096c0 6.575-2.933 10.384-7.925 10.384a6.23 6.23 0 0 1-3.643-.908 6.28 6.28 0 0 1-2.47-2.84h-.122v9.953h-6.54V16.82h6.5v3.605h.122a6.321 6.321 0 0 1 2.444-2.917 6.272 6.272 0 0 1 3.668-.975c5.135-.04 8.089 3.748 8.089 10.343l-.122-.02zm-6.662 0c0-3.195-1.487-5.263-3.79-5.263-2.302 0-3.749 2.048-3.77 5.263-.02 3.216 1.468 5.243 3.77 5.243 2.303 0 3.912-1.904 3.912-5.222l-.122-.02zm17.828-10.568c5.481 0 8.884 2.601 8.924 6.78h-5.97c0-1.455-1.202-2.356-2.995-2.356-1.793 0-2.648.697-2.648 1.741 0 1.045.754 1.372 2.261 1.68l4.198.86c4.075.86 5.705 2.498 5.705 5.55 0 4.096-3.77 6.881-9.373 6.881s-9.25-2.703-9.515-6.82h6.337c.183 1.495 1.365 2.376 3.28 2.376 1.915 0 2.812-.614 2.812-1.7 0-1.085-.612-1.27-2.18-1.597l-3.79-.8c-3.933-.839-5.99-2.907-5.99-6 .122-4.014 3.545-6.574 9.066-6.574l-.122-.02zm31.378 20.645h-6.337v-3.79h-.122a5.77 5.77 0 0 1-2.19 3.132 5.726 5.726 0 0 1-3.658 1.067 6.955 6.955 0 0 1-5.29-2.178 7.046 7.046 0 0 1-1.903-5.42V16.778h6.541v11.55c0 2.377 1.243 3.667 3.28 3.667a3.331 3.331 0 0 0 2.513-1.174 3.357 3.357 0 0 0 .768-2.676V16.778h6.52l-.122 20.153zm3.158-20.173h6.357v3.89h.142a5.858 5.858 0 0 1 2.14-3.111 5.813 5.813 0 0 1 3.586-1.148 5.193 5.193 0 0 1 3.614 1.054 5.25 5.25 0 0 1 1.969 3.226h.285a6.138 6.138 0 0 1 2.333-3.184 6.088 6.088 0 0 1 3.78-1.096 6.346 6.346 0 0 1 4.819 1.95 6.385 6.385 0 0 1 1.4 2.266 6.38 6.38 0 0 1 .361 2.645V36.95h-6.58V24.93c0-2.048-.958-3.195-2.812-3.195a2.846 2.846 0 0 0-2.18.965c-.274.31-.477.674-.598 1.07-.118.395-.15.812-.095 1.222v11.96h-6.235V24.868c0-2.048-.998-3.134-2.791-3.134a2.92 2.92 0 0 0-2.806 2.063c-.124.4-.161.82-.108 1.235v11.92h-6.54l-.041-20.194zM43.751 14.717c0-2.965-.887-5.86-2.545-8.307a14.607 14.607 0 0 0-6.748-5.408 14.46 14.46 0 0 0-8.595-.62 14.556 14.556 0 0 0-7.441 4.385H0V44h38.895V25.664a14.695 14.695 0 0 0 3.585-4.95 14.813 14.813 0 0 0 1.271-5.997zm-7.483 0a7.226 7.226 0 0 1-1.192 3.992 7.13 7.13 0 0 1-3.19 2.651c-1.3.546-2.73.69-4.112.415a7.095 7.095 0 0 1-3.647-1.962 7.2 7.2 0 0 1-1.951-3.675 7.24 7.24 0 0 1 .402-4.15 7.166 7.166 0 0 1 2.62-3.225 7.07 7.07 0 0 1 3.955-1.21c1.884 0 3.692.754 5.025 2.097a7.212 7.212 0 0 1 2.09 5.067zM31.41 36.448H7.484v-24.13h7.292c-.141.792-.215 1.595-.222 2.399a14.814 14.814 0 0 0 4.28 10.412 14.547 14.547 0 0 0 10.319 4.319 14.15 14.15 0 0 0 2.258-.194v7.194z"/>
    </g>
</svg>
