<svg width="90" height="25" viewBox="0 0 90 25" xmlns="http://www.w3.org/2000/svg">
    <g fill="#7264F1" fill-rule="nonzero">
        <path d="M30.34 6.625a1.867 1.867 0 0 1 2.177-1.92 1.863 1.863 0 0 1 1.507 1.446 1.868 1.868 0 0 1-1.82 2.26 1.796 1.796 0 0 1-1.841-1.775l-.023-.011zm0 2.685h3.694v11.218h-3.637L30.34 9.31zm16.981 5.61c0 3.651-1.637 5.768-4.421 5.768a3.487 3.487 0 0 1-3.41-2.082h-.068v5.53h-3.649V9.343H39.4v2.002h.068a3.515 3.515 0 0 1 3.41-2.161c2.864-.023 4.512 2.082 4.512 5.745l-.068-.01zm-3.717 0c0-1.776-.83-2.925-2.114-2.925-1.284 0-2.091 1.138-2.102 2.924-.012 1.786.818 2.913 2.102 2.913 1.285 0 2.183-1.058 2.183-2.902l-.069-.01zm9.946-5.872c3.057 0 4.956 1.445 4.978 3.766h-3.33c0-.808-.67-1.308-1.67-1.308-1.001 0-1.478.387-1.478.967s.42.762 1.261.933l2.342.478c2.273.478 3.182 1.388 3.182 3.083 0 2.276-2.103 3.823-5.228 3.823-3.126 0-5.16-1.502-5.308-3.789h3.535c.102.83.761 1.32 1.83 1.32 1.068 0 1.568-.341 1.568-.944s-.34-.706-1.216-.888l-2.114-.444c-2.194-.466-3.342-1.615-3.342-3.333.068-2.23 1.978-3.653 5.058-3.653l-.068-.011zm17.504 11.469h-3.535v-2.105h-.068a3.206 3.206 0 0 1-3.262 2.333 3.894 3.894 0 0 1-3.803-2.603 3.9 3.9 0 0 1-.21-1.619V9.321h3.649v6.417c0 1.32.693 2.037 1.83 2.037a1.865 1.865 0 0 0 1.83-2.14V9.322h3.637l-.068 11.196zM72.816 9.31h3.546v2.162h.08a3.254 3.254 0 0 1 3.193-2.367 2.914 2.914 0 0 1 3.114 2.378h.16a3.411 3.411 0 0 1 3.41-2.378 3.541 3.541 0 0 1 3.47 2.342c.17.47.239.971.201 1.47v7.611h-3.671V13.85c0-1.138-.535-1.775-1.569-1.775a1.593 1.593 0 0 0-1.602 1.809v6.644h-3.479v-6.713c0-1.137-.556-1.74-1.557-1.74a1.622 1.622 0 0 0-1.565 1.146 1.61 1.61 0 0 0-.06.685v6.622h-3.649L72.816 9.31zM24.407 8.176a8.205 8.205 0 0 0-1.42-4.615A8.143 8.143 0 0 0 19.222.557a8.098 8.098 0 0 0-4.794-.344 8.127 8.127 0 0 0-4.151 2.435H0v21.796h21.698V14.258a8.165 8.165 0 0 0 2-2.75 8.2 8.2 0 0 0 .709-3.332zm-4.175 0c.002.79-.23 1.561-.665 2.218a3.974 3.974 0 0 1-1.78 1.473 3.95 3.95 0 0 1-4.328-.86 4.007 4.007 0 0 1-.864-4.348c.3-.728.81-1.352 1.462-1.79a3.955 3.955 0 0 1 5.01.492 3.998 3.998 0 0 1 1.165 2.815zm-2.71 12.073H4.176V6.844h4.068c-.079.44-.12.885-.124 1.332.002 2.17.861 4.25 2.388 5.784a8.132 8.132 0 0 0 5.756 2.4 7.925 7.925 0 0 0 1.26-.108v3.997z"/>
    </g>
</svg>
