<svg width="84" height="84" viewBox="0 0 84 84" xmlns="http://www.w3.org/2000/svg">
    <path d="M42 4.375c20.755 0 37.625 16.87 37.625 37.625S62.755 79.625 42 79.625 4.375 62.755 4.375 42 21.245 4.375 42 4.375zm24.498 16.483-45.64 45.64c5.676 4.906 13.07 7.877 21.142 7.877 17.85 0 32.375-14.525 32.375-32.375 0-8.073-2.971-15.466-7.877-21.142zM42 9.625C24.15 9.625 9.625 24.15 9.625 42a32.23 32.23 0 0 0 7.552 20.76l45.584-45.583A32.23 32.23 0 0 0 42 9.625z" fill="#A90000" fill-rule="evenodd"/>
</svg>
