<svg width="170" height="176" viewBox="0 0 170 176" xmlns="http://www.w3.org/2000/svg" xmlns:xlink="http://www.w3.org/1999/xlink">
    <defs>
        <path d="M85 176c3.784 0 7.63-.235 10.953-.694 7.864-1.085 21.972-.854 42.324.694C159.426 137.575 170 109.33 170 91.266c0-13.258-6.126-43.496-18.38-90.714L85 0H15.102C5.034 48.898 0 79.32 0 91.266 0 138.063 37.953 176 85 176z" id="ribsz5xcvc"/>
        <path d="m146.801.3-6.597-.3s.734 16.861.57 28.652c-.077 5.664-.928 12.772-1.602 13.679-.533.713-2.818 3.297-6.154 6.616-9.473 9.424-27.948 23.404-28.694 24.088l-4.315 1.58c-.258 2.558-.962 4.474-4.67 5.749-3.416 1.174-9.877-1.917-15.26-.51-.075.172-.235.244-.41.336-.174.091-.508.174-1.034.174 0 0-12.267 2.165-24.401 1.635-8.981-.391-18.192-3.231-20.727-4.445C27.544 74.701 4.304 57.57 4.304 57.57L0 62.582S15.952 93.286 28.6 98.81c6.884 3.007 22.003 6.626 34.354 9.3 4.884 1.057 19 5.418 20.481 10.19 11.62 37.46 3.688 67.681 3.688 67.681s3.016 1.874 16.878-1.976c18.025-5.005 24.946-11.98 24.946-11.98 5.08-6.157 5.68-22.6 5.68-22.6s3.37-2.179 4.545 4.146c.847 4.557 4.082 5.776 4.362 7.377.266 1.505 2.022 2.208 3.25 1.298 2.605-1.928-.314-2.776.847-4.98 4.058-7.699-2.15-38.794-14.613-60.673-2.226-3.911 1.673-11.136 4.055-14.955 7.667-12.297 19.454-31.799 19.599-35.714.08-2.12-.643-12.34-1.804-19.494C152.858 13.983 146.801.3 146.801.3z" id="0lkvgi7xke"/>
        <path d="M32.928 80.429C21.276 94.444 10.747 103.266 1.34 106.892c-14.11 5.44 87.77 102.807 89.798 102.807 1.352 0 36.79-11.595 106.317-34.785-5.868-109.819-13.033-158.11-21.496-144.872-12.695 19.857-43.036-6.858-45.582-26.676-1.698-13.213-34.181 12.475-97.45 77.063z" id="c9uybuz5jg"/>
        <circle id="4jv1rkz7sa" cx="85" cy="85" r="85"/>
    </defs>
    <g fill="none" fill-rule="evenodd">
        <g transform="translate(0 6)">
            <mask id="1vb5rwyckb" fill="#fff">
                <use xlink:href="#4jv1rkz7sa"/>
            </mask>
            <use fill="#F87A53" xlink:href="#4jv1rkz7sa"/>
            <path d="m92.769 170-3.578 8.273-61.026-11.93 6.158-13.12 25.415-15.898L92.768 170z" fill="#FFF" mask="url(#1vb5rwyckb)"/>
        </g>
        <mask id="byvec8dtad" fill="#fff">
            <use xlink:href="#ribsz5xcvc"/>
        </mask>
        <g mask="url(#byvec8dtad)">
            <path d="M32.672 176.815c1.795-7.706 21.742-31.734 31.96-26.168 10.217 5.565 4.916 35.788-5.733 71.43-.164.544-.328 1.084-.498 1.621 21.468-3.523 47.019-4.593 47.019-4.593l2.69 12.411c-19.345 5.344-56.926 23.918-72.686 31.915-6.026 2.731-13.104 2.731-14.545-2.568-4.825-17.746 11.793-84.048 11.793-84.048" fill="#002554"/>
            <path d="M36.259 5.474c-1.5 3.452-2.698 7.979-1.682 10.366 1.15 2.707.833 4.664.833 4.664l2.454.6 2.934.715s.156-.251.39-.68a22.27 22.27 0 0 0 .858-1.74s.136-1.296 1.388-1.888c1.249-.59 2.56-2.097 2.8-3.556.24-1.456 1.745-4.214 1.311-4.46-2.028-1.153-2.568 3.535-3.474 3.724-.821.171-1.082-.41-1.124-.523l-.009-.022C41.514 9.216 44.165.102 42.061.006c-4.014-.185-5.165 3.998-5.802 5.468" fill="#F4AD97"/>
            <path d="M83.796 182.568c11.263 2.92 8.438 16.46 6.756 53.621a126.474 126.474 0 0 1-1.138 12.14c16.507-3.315 41.885-3.814 54.17-3.848 0 0 2.04 4.538 1.951 8.164-.186 7.72-4.13 12.824-4.13 12.824-27.842 8.325-70.642 22.377-70.642 22.377l-.006-.034c-2.854.742-5.54-.685-7.676-4.773C54.567 266.737 40 158.255 40 158.255c-.13-7.911 32.536 21.393 43.797 24.313" fill="#002554"/>
            <path d="m105.92 74.936-10.946 2.43-7.438 1.651s-1.229 2.536-2.837 7.248c-.425 1.24-1.996 6.212-2.457 7.75-2.184.092-3.678 7.988.258 9.355.776.27 2.895 1.343 3.78 1.472.8.116 4.275-1.008 5.108-.934 5.373.474 10.795-4.619 10.795-4.619s-3.96-10.037 3.738-24.353z" fill="#F4AD97"/>
            <path d="M87.536 79.017s-1.229 2.536-2.837 7.248c6.388 1.905 17.784-4.304 17.784-4.304-2.57-2.35-5.119-3.806-7.509-4.594l-7.438 1.65" fill="#D08D78"/>
            <path d="M82.62 75.274s12.683 14.023 21.296 5.992c8.613-8.03 16.052-11.629 8.319-20.922-7.733-9.293-12.62-7.943-16.148-5.962-3.525 1.981-16.544 17.037-13.466 20.892" fill="#F4AD97"/>
            <path d="M104.627 80.398s-1.3-1.44.58-3.313c1.88-1.872 4.02-4.573 1.943-5.403-2.079-.83-3.228.448-3.296-.885-.065-1.332 2.548-4.649-2.265-8.844-4.814-4.196-8.226-4.069-9.738-6.934-1.512-2.865 1.158-6.478 1.158-6.478s-.336 1.78.346 2.971c0 0 .331-8.376 7.704-8.448 7.376-.073 10.06 5.938 12.532 8.157 5.448 4.888 8.871 8.165 7.755 13.407-1.115 5.242-10.176 15.067-16.72 15.77" fill="#311F55"/>
            <path d="m90.546 72.352-4.706-4.426s-1.914 2.935-.569 4.21c1.342 1.274 5.275.216 5.275.216" fill="#FFF"/>
            <g transform="matrix(-1 0 0 1 182.25 19.4)">
                <mask id="2qqqscmzdf" fill="#fff">
                    <use xlink:href="#0lkvgi7xke"/>
                </mask>
                <use fill="#F4AD97" xlink:href="#0lkvgi7xke"/>
                <path d="M56.672 82c2.367 12.643 2.975 20.717 1.824 24.223-1.726 5.257-1.666 6.918-1.351 6.918.315 0 11.26-9.426 11.26-10.038 0-.408-3.457-8.64-10.37-24.696L56.672 82z" fill="#D08D78" mask="url(#2qqqscmzdf)"/>
                <g mask="url(#2qqqscmzdf)">
                    <g transform="translate(-17.388 -24.893)">
                        <mask id="j71wah221h" fill="#fff">
                            <use xlink:href="#c9uybuz5jg"/>
                        </mask>
                        <use fill="#FFF" xlink:href="#c9uybuz5jg"/>
                        <path d="M99.604 105.253c-1.632 29.493.27 48.54 5.71 57.144l-76.675-20.105-4.105-75.069 75.07 38.03zM114.94 99.435c16.446-.86 31.346 11.307 44.7 36.504 2.475 6.787 12.548-33.906 30.22-122.08-33.07 2.49-51.946 3.338-56.626 2.543-4.68-.796-8.437 22.757-11.271 70.66l-7.023 12.373z" fill="#311F55" mask="url(#j71wah221h)"/>
                    </g>
                </g>
                <path d="M80.235 79.2c1.488-.311 3.674-.303 6.503.031.242.029.49.065.769.112l.532.096.822.157c2.002.38 3.347.496 5.158.328 3.298-.307 5.472-2.276 5.088-4.904l-.134-.888-.137-.822-.065-.337-.04-.181.057.11a.844.844 0 0 0 .31.304.978.978 0 0 0 1.352-.306l.066-.113-1.945-.008.004-.273c.008-.276.036-.415.134-.59l.053-.09c.276-.432.867-.644 1.39-.319a.972.972 0 0 1 .399.453c.052.11.087.222.124.369l.048.21.082.42.094.553c-.607.584-.906.885-.898.903 1.756 3.856-1.48 7.099-5.797 7.5-1.873.174-3.31.076-5.226-.264l-1.537-.289c-.146-.026-.281-.05-.408-.07l-.36-.054-.17-.02c-4.715-.827-5.304-.626-6.497-1.294-1.928-1.08-5.508-.652-5.008-1.77.343-.768 1.308-1.401 3.029-2.09l.293-.114.719 1.866c-.714.275-1.267.53-1.663.759l-.19.115.11.04c.39.133.905.249 1.48.34l.293.043c.151.02.301.04.444.055l.502.047.117.007-.018.002-.108.029.23-.052z" fill="#311F55" mask="url(#2qqqscmzdf)"/>
            </g>
            <g fill="#311F55" opacity=".991">
                <path d="M71.035 116.607a.602.602 0 0 1 .204-.294.63.63 0 0 1 .942.214.608.608 0 0 1-.09.679.613.613 0 0 1-.31.183.629.629 0 0 1-.362-.02.609.609 0 0 1-.349-.302.587.587 0 0 1-.03-.454l-.005-.006zm-.3.826 1.156.42-1.256 3.451-1.139-.415 1.238-3.456zm4.69 3.66c-.409 1.124-1.158 1.588-2.03 1.27a1.18 1.18 0 0 1-.58-.386 1.15 1.15 0 0 1-.255-.642l-.022-.008-.619 1.7-1.143-.416 1.656-4.548 1.136.413-.224.616.021.008c.162-.174.374-.294.608-.343.235-.05.48-.026.702.067.9.32 1.18 1.154.77 2.281l-.02-.011zm-1.164-.423c.199-.546.067-.994-.335-1.14-.402-.147-.782.111-.986.66-.203.547-.07.988.333 1.135.402.146.802-.077 1.008-.644l-.02-.011zm3.772-.672c.958.349 1.39 1.01 1.138 1.726l-1.043-.38c.09-.248-.064-.478-.377-.592-.313-.115-.506-.05-.57.128-.066.179.045.283.29.431l.68.414c.658.406.841.79.651 1.311-.254.7-1.086.936-2.065.58-.98-.356-1.448-1.05-1.239-1.77l1.108.403c-.061.267.09.492.425.614.335.122.53.074.597-.112.068-.185-.028-.255-.282-.411l-.612-.378c-.635-.393-.866-.877-.674-1.406.271-.678 1.029-.898 1.993-.546l-.02-.012zm4.2 5.523-1.108-.403.236-.647-.022-.008a1.05 1.05 0 0 1-.577.396 1.082 1.082 0 0 1-.705-.05 1.32 1.32 0 0 1-.79-.71 1.272 1.272 0 0 1 .005-1.046l.806-2.215 1.143.416-.718 1.973c-.148.406-.01.706.345.835a.631.631 0 0 0 .512-.04.606.606 0 0 0 .3-.409l.708-1.942 1.139.415-1.275 3.435zm1.806-3.246 1.11.405-.241.664.024.01c.14-.191.339-.33.568-.396.229-.066.474-.055.698.032.233.063.435.209.566.41.131.2.182.442.143.676l.05.018c.151-.194.364-.334.606-.395a1.15 1.15 0 0 1 .728.053 1.2 1.2 0 0 1 .721.64 1.157 1.157 0 0 1 .003.95l-.852 2.341-1.15-.418.747-2.054c.128-.35.031-.607-.292-.725a.54.54 0 0 0-.441.026.521.521 0 0 0-.264.348l-.744 2.043-1.09-.396.752-2.065c.128-.35.02-.599-.293-.713a.55.55 0 0 0-.446.028.53.53 0 0 0-.268.35l-.741 2.037-1.143-.416 1.249-3.453zM69.002 116.408a2.65 2.65 0 0 0 .072-1.582 2.706 2.706 0 0 0-.843-1.353 2.746 2.746 0 0 0-1.463-.652 2.72 2.72 0 0 0-1.573.276l-3.219-1.172-2.44 6.703 6.797 2.474 1.14-3.133c.353-.138.67-.349.934-.618s.467-.59.595-.943zm-1.307-.476a1.293 1.293 0 0 1-.457.606 1.32 1.32 0 0 1-.722.25 1.34 1.34 0 0 1-1.26-.758 1.29 1.29 0 0 1 .216-1.436 1.31 1.31 0 0 1 .659-.383 1.336 1.336 0 0 1 1.514.722c.15.314.167.674.05.999zm-2.2 3.404-4.181-1.522 1.5-4.123 1.274.464a2.554 2.554 0 0 0-.187.396 2.663 2.663 0 0 0 .1 2.05 2.736 2.736 0 0 0 1.535 1.395c.132.047.268.084.406.11l-.447 1.23z"/>
            </g>
        </g>
    </g>
</svg>
