<svg width="24" height="24" viewBox="0 0 24 24" xmlns="http://www.w3.org/2000/svg">
    <path d="M15 1.25c5.43 0 7.75 2.32 7.75 7.75v6c0 5.43-2.32 7.75-7.75 7.75H9c-5.43 0-7.75-2.32-7.75-7.75V9c0-5.43 2.32-7.75 7.75-7.75h6zm0 1.5H9C4.39 2.75 2.75 4.39 2.75 9v6c0 4.61 1.64 6.25 6.25 6.25h6c4.61 0 6.25-1.64 6.25-6.25V9c0-4.61-1.64-6.25-6.25-6.25zM5.774 18.716l-.049-.02a.714.714 0 0 1-.256-.167.736.736 0 0 1-.18-.296A.72.72 0 0 1 5.25 18v-4c0-.41.34-.75.75-.75s.75.34.75.75v2.188l9.438-9.438H14c-.41 0-.75-.34-.75-.75s.34-.75.75-.75h4c.086 0 .17.015.247.043l.018.007a.554.554 0 0 1 .104.048l.035.023a.686.686 0 0 1 .228.228l.02.034a.711.711 0 0 1 .047.1l.008.023A.7.7 0 0 1 18.75 6v4c0 .41-.34.75-.75.75s-.75-.34-.75-.75V7.808L7.808 17.25H10c.41 0 .75.34.75.75s-.34.75-.75.75H6a.736.736 0 0 1-.108-.008l.107.008a.757.757 0 0 1-.172-.02l-.025-.007-.028-.007z" fill="#002554" fill-rule="evenodd"/>
</svg>
