<svg width="24" height="24" viewBox="0 0 24 24" xmlns="http://www.w3.org/2000/svg">
    <path d="M15 1.25c1.728 0 3.243.927 4.074 2.31h.277c1.79 0 3.25 1.5 3.25 3.35 0 1.53-.63 3.04-1.72 4.13l-.09.08-.388.317c-.402.317-.848.629-1.38.84a7.782 7.782 0 0 1-6.122 4.42v1.553h2.25c1.52 0 2.75 1.23 2.75 2.75v.25h.25c.41 0 .75.34.75.75s-.34.75-.75.75h-12c-.41 0-.75-.34-.75-.75s.34-.75.75-.75h.25V21c0-1.52 1.23-2.75 2.75-2.75h2.25v-1.523c-2.869-.221-5.308-2.014-6.453-4.515A5.628 5.628 0 0 1 3.12 10.98C1.97 9.71 1.4 8.32 1.4 6.85c0-1.82 1.43-3.25 3.25-3.25h.252A4.752 4.752 0 0 1 9 1.25h6zm.15 18.5h-6c-.69 0-1.25.56-1.25 1.25v.25h8.5V21c0-.69-.56-1.25-1.25-1.25zm-.15-17H9a3.256 3.256 0 0 0-3.25 3.24v2.86c0 .86.17 1.7.52 2.5.04.09.06.186.062.28A6.247 6.247 0 0 0 12 15.25a6.253 6.253 0 0 0 5.681-3.642.68.68 0 0 1 .032-.147l.028-.07a6.145 6.145 0 0 0 .51-2.44L18.25 6c0-1.79-1.46-3.25-3.25-3.25zm4.68 2.34c.05.27.07.55.07.82V9c0 .374-.027.742-.078 1.103l.159-.133c.8-.8 1.27-1.92 1.27-3.06 0-.9-.61-1.66-1.42-1.82zM4.3 5.13c-.81.16-1.4.86-1.4 1.72 0 1.09.44 2.14 1.31 3.1.033.04.072.075.113.108A7.672 7.672 0 0 1 4.25 9V5.85c0-.24.02-.48.05-.72z" fill="#FFF" fill-rule="nonzero"/>
</svg>
