<svg width="24" height="24" viewBox="0 0 24 24" xmlns="http://www.w3.org/2000/svg">
    <path d="M15 1.25c5.43 0 7.75 2.32 7.75 7.75v6c0 5.43-2.32 7.75-7.75 7.75H9c-5.43 0-7.75-2.32-7.75-7.75V9c0-5.43 2.32-7.75 7.75-7.75h6zm0 1.5H9C4.39 2.75 2.75 4.39 2.75 9v6c0 4.61 1.64 6.25 6.25 6.25h6c4.61 0 6.25-1.64 6.25-6.25V9c0-4.61-1.64-6.25-6.25-6.25zm-3.001 12.593c.51 0 .933.4.933.883s-.41.884-.933.884c-.523 0-.934-.4-.934-.884 0-.482.423-.883.934-.883zm0-8.233c1.655 0 3 1.272 3 2.838 0 1.343-1.046 2.015-1.432 2.262-.486.306-.635.506-.635.836v.247c0 .495-.423.884-.934.884-.51 0-.933-.4-.933-.884v-.247c0-1.366 1.058-2.038 1.456-2.297.46-.294.61-.494.61-.8 0-.59-.51-1.072-1.133-1.072-.622 0-1.132.483-1.132 1.071 0 .483-.424.884-.934.884s-.934-.4-.934-.884c0-1.566 1.345-2.838 3-2.838z" fill="#FFF" fill-rule="evenodd"/>
</svg>
