<svg width="24" height="24" viewBox="0 0 24 24" xmlns="http://www.w3.org/2000/svg">
    <path d="M22.53 1.47c.29.29.29.77 0 1.06L15.06 10l-.007.005L2.529 22.53c-.15.15-.34.22-.53.22s-.38-.07-.53-.22a.754.754 0 0 1 0-1.06l3.375-3.376-.087-.075A14.723 14.723 0 0 1 2.26 15c-1.06-1.65-1.06-4.34 0-6C4.7 5.18 8.25 2.98 12 2.98c2.09 0 4.151.685 5.98 1.98l3.49-3.49c.29-.29.77-.29 1.06 0zm-1.9 5.99c.39.48.77 1 1.11 1.54 1.06 1.65 1.06 4.34 0 6-2.44 3.82-5.99 6.02-9.74 6.02-1.33 0-2.63-.27-3.88-.8a.75.75 0 0 1-.4-.98c.16-.38.6-.56.98-.4 1.06.45 2.17.68 3.29.68 3.23 0 6.32-1.94 8.48-5.33.75-1.17.75-3.21 0-4.38-.31-.49-.65-.96-1.01-1.4a.76.76 0 0 1 .11-1.06.75.75 0 0 1 1.06.11zM12 4.48c-3.23 0-6.32 1.94-8.48 5.33-.75 1.17-.75 3.21 0 4.38a13.871 13.871 0 0 0 2.385 2.846l2.55-2.552A4.298 4.298 0 0 1 7.67 12c0-2.39 1.94-4.33 4.33-4.33.898 0 1.76.274 2.485.785l2.418-2.418C15.38 5.014 13.694 4.48 12 4.48zm3.65 7.49c.41.08.68.47.6.88-.32 1.73-1.7 3.1-3.42 3.42-.05-.01-.09 0-.14 0-.35 0-.67-.25-.74-.61-.08-.41.19-.8.6-.87 1.1-.2 2.02-1.12 2.22-2.22.08-.41.47-.67.88-.6zM12 9.17a2.834 2.834 0 0 0-2.46 4.23l3.86-3.86c-.42-.24-.9-.37-1.4-.37z" fill="#000" fill-rule="evenodd"/>
</svg>
